<svg fill="#ffb606" xmlns="http://www.w3.org/2000/svg" viewBox="0 0 512 512"><path d="M512 349.984c0-19.53-12.578-36.024-30-42.237V152.353l30-12.369L256 37.27 0 139.984l256 102.715 196-78.3v143.348c-17.422 6.213-30 22.707-30 42.237 0 17.88 10.56 33.228 25.701 40.481l-24.924 74.773 28.447 9.492L467 427.401l15.776 47.329 28.447-9.492-24.924-74.773c15.141-7.252 25.701-22.6 25.701-40.481z"/><path d="M256 275.028L121 220.82v39.164c0 42.759 58.037 75 135 75s135-32.241 135-75V220.82l-135 54.208z"/></svg>