<svg fill="#ffb606" xmlns="http://www.w3.org/2000/svg" width="512" height="512"><path d="M392 60V0H120v60H0v452h512V60H392zm-30-30v452h-30V299H180v183h-30V30h212zm-60 329h-92v-30h92v30zm-92 30h31v93h-31v-93zm61 0h31v93h-31v-93zM30 90h90v392H30V90zm452 392h-90V90h90v392z"/><path d="M60 120h30v30H60zm0 60h30v30H60zm0 60h30v30H60zm0 60h30v30H60zm362-180h30v30h-30zm0 60h30v30h-30zm0 60h30v30h-30zm0 60h30v30h-30zM60 360h30v30H60zm362 0h30v30h-30zM332 60H180v89h152V60zm-30 59h-92V90h92v29zm30 61H180v89h152v-89zm-30 59h-92v-29h92v29z"/></svg>